HIERARCHY
ROOT root
{
	OFFSET 0.000000 0.000000 0.000000
	CHANNELS 6 Xposition Yposition Zposition Zrotation Yrotation Xrotation
	JOINT lhip
	{
		OFFSET 0.058581 -0.082280 -0.017664
		CHANNELS 3 Zrotation Yrotation Xrotation
		JOINT lknee
		{
			OFFSET 0.043451 -0.386469 0.008037
			CHANNELS 3 Zrotation Yrotation Xrotation
			JOINT lankle
			{
				OFFSET -0.014790 -0.426874 -0.037428
				CHANNELS 3 Zrotation Yrotation Xrotation
				JOINT ltoe
				{
					OFFSET 0.041054 -0.060286 0.122042
					CHANNELS 3 Zrotation Yrotation Xrotation
					End Site
					{
						OFFSET 0.000000 0.000000 0.000000
					}
				}
			}
		}
	}
	JOINT rhip
	{
		OFFSET -0.060310 -0.090513 -0.013543
		CHANNELS 3 Zrotation Yrotation Xrotation
		JOINT rknee
		{
			OFFSET -0.043257 -0.383688 -0.004843
			CHANNELS 3 Zrotation Yrotation Xrotation
			JOINT rankle
			{
				OFFSET 0.019056 -0.420046 -0.034562
				CHANNELS 3 Zrotation Yrotation Xrotation
				JOINT rtoe
				{
					OFFSET -0.034840 -0.062106 0.130323
					CHANNELS 3 Zrotation Yrotation Xrotation
					End Site
					{
						OFFSET 0.000000 0.000000 0.000000
					}
				}
			}
		}
	}
	JOINT lowerback
	{
		OFFSET 0.004439 0.124404 -0.038385
		CHANNELS 3 Zrotation Yrotation Xrotation
		JOINT upperback
		{
			OFFSET 0.004488 0.137956 0.026820
			CHANNELS 3 Zrotation Yrotation Xrotation
			JOINT chest
			{
				OFFSET -0.002265 0.056032 0.002855
				CHANNELS 3 Zrotation Yrotation Xrotation
				JOINT lowerneck
				{
					OFFSET -0.013390 0.211636 -0.033468
					CHANNELS 3 Zrotation Yrotation Xrotation
					JOINT upperneck
					{
						OFFSET 0.010113 0.088937 0.050410
						CHANNELS 3 Zrotation Yrotation Xrotation
						End Site
						{
							OFFSET 0.000000 0.000000 0.000000
						}
					}
				}
				JOINT lclavicle
				{
					OFFSET 0.071702 0.114000 -0.018898
					CHANNELS 3 Zrotation Yrotation Xrotation
					JOINT lshoulder
					{
						OFFSET 0.122921 0.045205 -0.019046
						CHANNELS 3 Zrotation Yrotation Xrotation
						JOINT lelbow
						{
							OFFSET 0.255332 -0.015649 -0.022946
							CHANNELS 3 Zrotation Yrotation Xrotation
							JOINT lwrist
							{
								OFFSET 0.265709 0.012698 -0.007375
								CHANNELS 3 Zrotation Yrotation Xrotation
								End Site
								{
									OFFSET 0.000000 0.000000 0.000000
								}
							}
						}
					}
				}
				JOINT rclavicle
				{
					OFFSET -0.082954 0.112472 -0.023707
					CHANNELS 3 Zrotation Yrotation Xrotation
					JOINT rshoulder
					{
						OFFSET -0.113228 0.046853 -0.008472
						CHANNELS 3 Zrotation Yrotation Xrotation
						JOINT relbow
						{
							OFFSET -0.260127 -0.014369 -0.031269
							CHANNELS 3 Zrotation Yrotation Xrotation
							JOINT rwrist
							{
								OFFSET -0.269108 0.006794 -0.006027
								CHANNELS 3 Zrotation Yrotation Xrotation
								End Site
								{
									OFFSET 0.000000 0.000000 0.000000
								}
							}
						}
					}
				}
			}
		}
	}
}
MOTION
Frames: 7
Frame Time: 0.033333
1.751539 0.740011 0.980808 -89.639473 2.554000 81.243437 0.132525 0.379865 9.842523 -2.099799 -14.524458 4.462570 6.121010 8.191527 -20.339930 0.000000 -0.000000 0.000000 2.785253 -3.653078 6.189777 1.653513 0.270000 10.393704 1.050494 -3.071392 -20.050986 0.000000 -0.000000 0.000000 -3.219386 2.935986 4.248324 1.583698 -2.939294 6.725553 1.665535 -0.399664 2.048133 3.563925 5.798860 13.333105 4.373866 2.898842 3.163614 -21.957155 0.360837 3.564308 -67.722598 -8.471543 12.684460 15.171809 -39.448864 5.955148 1.296299 0.241665 -17.057427 20.961723 1.302043 3.217960 65.878029 6.495853 11.925188 -19.567479 33.615408 -0.015009 7.293378 0.639523 -10.352596 
1.752805 0.740629 0.980473 -89.566546 2.860285 81.439802 0.492940 0.144310 9.323859 -2.190683 -14.318365 4.895753 5.893813 8.189810 -20.625448 0.000000 -0.000000 0.000000 3.144698 -3.404640 5.800773 1.647699 0.168699 10.921347 0.753060 -2.794972 -19.082440 0.000000 -0.000000 0.000000 -2.709754 2.677768 4.344482 1.541293 -2.765628 6.042527 1.453821 -0.434263 2.526181 3.778659 5.755855 12.742241 3.936745 2.658826 3.939735 -21.612062 0.474840 3.458151 -67.867895 -8.918658 13.210396 14.658415 -40.325039 7.232296 1.735012 -0.904871 -17.792264 20.872920 1.220003 3.087976 65.918167 6.896893 12.381615 -19.037452 34.477223 0.371869 6.185038 2.109897 -12.581130 
1.754753 0.742428 0.979802 -89.287363 3.080575 81.799040 0.875369 -0.152670 8.275942 -2.448794 -14.170936 5.920456 6.072907 8.093363 -21.029636 0.000000 -0.000000 0.000000 3.403268 -3.184784 5.286468 1.817974 0.397037 11.513723 1.053134 -3.055878 -17.129819 0.000000 -0.000000 0.000000 -2.543569 2.505867 4.155124 1.703696 -2.801456 5.881851 1.348486 -0.457963 2.736810 3.732959 5.639348 12.313032 3.741794 2.525564 4.485178 -21.494940 0.180804 3.408232 -67.916626 -9.617293 13.590785 13.783238 -39.322805 7.968295 2.628149 -1.966821 -17.776267 20.843223 1.119407 3.036300 65.898624 7.209995 12.570618 -18.748620 34.609311 0.347252 5.961478 2.801301 -13.051765 
1.756614 0.743489 0.978358 -88.989142 3.337804 82.277481 1.222713 -0.508599 7.152736 -2.667716 -13.775185 6.760862 6.148227 7.949888 -21.132075 0.000000 -0.000000 0.000000 3.752556 -2.995521 4.630989 1.814786 0.189017 11.623346 1.085600 -3.341240 -16.924171 0.000000 -0.000000 0.000000 -2.203378 2.325495 3.874294 1.773172 -2.804808 5.777554 1.225770 -0.467783 2.868328 3.744085 5.542382 11.880301 3.531886 2.364678 4.814945 -21.751758 0.381470 3.594490 -67.815277 -9.745250 13.631610 13.434169 -39.025999 8.229673 1.853129 -2.506481 -17.619522 20.772683 1.000804 3.149252 65.928100 7.311039 12.625010 -18.705988 34.153737 0.421617 6.672321 3.252649 -13.140860 
1.757615 0.743980 0.978091 -88.773641 3.414674 82.431300 1.347599 -0.670605 6.702846 -2.787827 -13.786992 7.131407 6.123710 7.908563 -21.043651 0.000000 -0.000000 0.000000 3.881917 -3.065587 4.377706 1.792874 0.128719 11.701094 1.061403 -3.459827 -16.867305 0.000000 -0.000000 0.000000 -2.125285 2.286016 3.974674 1.784097 -2.815451 5.556365 1.221698 -0.536376 2.878973 3.629712 5.439511 11.701123 3.525605 2.374034 4.886253 -21.790177 0.422404 3.708851 -67.810352 -9.536288 13.531188 13.274239 -38.259270 8.195755 1.788534 -2.284622 -17.527831 20.702321 0.942877 3.190413 66.026299 7.059151 12.581393 -18.328562 33.532529 0.697461 7.306654 2.820065 -13.422260 
1.757896 0.744422 0.978012 -88.782870 3.383558 82.260335 1.320945 -0.657540 6.806666 -2.825791 -13.881646 7.248777 6.077669 8.101995 -21.131602 0.000000 -0.000000 0.000000 3.864269 -3.007146 4.598225 1.827392 0.247449 11.610145 1.096895 -3.636443 -16.740659 0.000000 -0.000000 0.000000 -2.084341 2.239041 4.159533 1.719229 -2.811610 5.605414 1.231407 -0.525804 2.953863 3.646053 5.262397 11.376840 3.351436 2.327016 5.186266 -22.068034 0.600602 3.771690 -67.832209 -9.185971 13.201582 13.423081 -36.345041 7.870066 1.283106 -2.217886 -17.259884 20.938705 0.988997 3.356174 65.853804 6.880969 12.399392 -17.988665 31.804092 0.928486 7.512877 2.862953 -12.981622 
1.758256 0.744895 0.977837 -88.748526 3.362243 82.158878 1.306310 -0.726440 6.779415 -2.916122 -14.063446 7.459242 6.088904 8.415059 -21.169948 0.000000 -0.000000 0.000000 3.877430 -2.949898 4.669196 1.865333 0.356710 11.689063 1.008665 -3.932931 -16.799760 0.000000 -0.000000 0.000000 -2.021511 2.203360 4.439043 1.647383 -2.808075 5.445747 1.222302 -0.542765 2.975288 3.483195 5.094794 11.189367 3.285078 2.402810 5.239260 -22.227486 0.603931 3.997576 -67.879325 -8.628347 12.776242 13.505284 -33.681499 7.511804 1.046753 -1.950824 -17.106801 21.038684 0.940510 3.495656 65.834632 6.439980 12.156250 -17.438969 29.983967 1.376759 7.850381 2.600625 -12.746646 
